<?xml version="1.0" standalone="no"?>
<!DOCTYPE svg PUBLIC "-//W3C//DTD SVG 20010904//EN"
 "http://www.w3.org/TR/2001/REC-SVG-20010904/DTD/svg10.dtd">
<svg version="1.0" xmlns="http://www.w3.org/2000/svg"
 width="610.000000pt" height="536.000000pt" viewBox="0 0 610.000000 536.000000"
 preserveAspectRatio="xMidYMid meet">

<g transform="translate(0.000000,536.000000) scale(0.100000,-0.100000)"
fill="#000000" stroke="none">
<path d="M1955 4745 c-136 -35 -774 -217 -1005 -287 -161 -49 -262 -93 -312
-137 -89 -78 -117 -221 -66 -333 14 -30 125 -186 247 -348 650 -861 1049
-1398 1054 -1419 3 -13 1 -31 -6 -41 -9 -15 -6 -28 15 -67 34 -62 52 -134 44
-176 -8 -45 -60 -64 -130 -49 -25 5 -46 6 -46 2 0 -22 70 -108 105 -127 64
-36 102 -37 220 -9 59 14 114 26 124 26 17 0 291 -358 291 -379 0 -6 -10 -16
-22 -22 l-22 -12 27 -19 c28 -20 92 -118 121 -185 22 -50 17 -107 -13 -136
-30 -30 -145 -40 -193 -16 -20 10 -39 23 -43 29 -11 18 -25 11 -25 -14 0 -32
32 -70 99 -115 69 -47 124 -71 162 -71 38 0 112 29 173 68 28 18 57 32 67 32
9 0 42 -34 74 -76 116 -154 189 -215 306 -254 96 -33 219 -26 313 18 37 18 72
32 77 32 5 0 9 -13 9 -29 0 -18 6 -31 17 -35 15 -6 32 8 33 26 0 17 66 81 101
99 21 10 72 24 113 31 122 19 184 -12 205 -102 6 -25 11 -48 11 -52 0 -21
-113 -119 -172 -147 -65 -32 -68 -32 -130 -20 -35 6 -68 16 -75 21 -8 6 -15
-2 -23 -27 -11 -33 -10 -39 11 -61 12 -13 40 -29 60 -34 21 -6 41 -15 44 -20
3 -6 28 -10 54 -10 82 0 182 82 216 176 35 100 54 127 113 156 43 20 61 24 79
17 13 -5 39 -9 56 -9 18 0 63 -16 101 -35 39 -19 76 -35 83 -35 7 0 18 -9 25
-21 18 -29 78 -58 145 -68 90 -14 231 -40 304 -56 37 -8 82 -15 100 -15 19 0
52 -5 74 -10 164 -41 336 -49 516 -24 121 17 302 19 383 3 27 -5 50 -9 52 -9
2 0 4 102 4 226 0 193 -2 225 -14 215 -8 -6 -19 -10 -26 -9 -7 2 -15 -3 -17
-9 -3 -7 0 -13 6 -13 6 0 11 -3 11 -7 0 -9 -52 -9 -66 0 -6 3 -16 2 -24 -4
-21 -13 -68 -11 -72 3 -3 8 -42 11 -129 11 -89 0 -129 3 -144 13 -25 18 -36
18 -29 -1 4 -8 1 -15 -5 -15 -10 0 -13 7 -10 26 0 4 -5 10 -12 14 -8 5 -3 8
12 9 115 3 127 9 115 54 -7 30 -59 59 -121 69 -83 12 -107 18 -170 37 -33 11
-61 15 -63 10 -6 -15 -28 -10 -45 9 -42 47 -1 97 86 105 41 3 65 12 87 31 35
29 80 44 163 53 32 3 65 12 73 20 16 16 38 22 117 30 31 3 57 9 57 14 0 4 15
11 33 14 17 4 40 14 49 22 9 8 41 16 70 18 29 1 56 3 61 4 4 0 7 147 7 326 l0
326 -50 -7 c-38 -5 -51 -3 -55 8 -3 7 -20 15 -38 16 -17 1 -44 5 -59 8 -15 3
-37 0 -50 -7 -13 -7 -49 -13 -81 -14 -52 -2 -60 1 -67 21 -8 20 -14 22 -64 18
-50 -3 -56 -2 -56 16 0 16 -7 20 -35 20 -40 0 -41 2 -19 35 20 31 8 33 -57 9
-59 -21 -146 -24 -187 -7 -19 8 -36 12 -39 10 -2 -3 -16 1 -31 9 -23 12 -30
11 -61 -8 -19 -12 -31 -16 -27 -10 4 7 -4 25 -19 44 -20 24 -23 33 -13 39 18
12 2 11 -42 -2 -31 -10 -41 -9 -65 7 l-27 18 23 17 c13 10 22 20 19 22 -3 2
-39 9 -80 14 -41 6 -84 14 -94 18 -15 7 -18 5 -13 -7 4 -11 -2 -18 -20 -22
-20 -6 -23 -10 -13 -21 6 -8 9 -19 5 -25 -3 -5 0 -13 8 -16 9 -3 12 -14 9 -31
-4 -21 -2 -25 11 -20 20 8 40 -16 44 -54 3 -30 26 -82 47 -109 7 -8 13 -24 14
-35 3 -35 8 -53 18 -66 25 -33 41 -109 23 -109 -28 0 -233 189 -294 271 -71
95 -246 423 -272 509 -10 30 -25 65 -34 78 -10 13 -23 48 -30 78 l-12 55 54
53 c79 76 94 98 91 129 -4 36 -30 35 -68 -3 -25 -24 -30 -35 -26 -62 4 -28 3
-31 -10 -21 -13 11 -19 3 -43 -56 -25 -62 -27 -77 -21 -143 8 -96 -2 -112 -40
-62 -16 21 -51 61 -79 89 -49 51 -51 52 -124 59 -41 3 -79 10 -85 15 -12 9
-86 20 -86 12 0 -2 28 -39 62 -80 35 -42 117 -143 183 -226 67 -82 222 -274
345 -425 253 -311 285 -354 294 -404 8 -44 -13 -98 -48 -121 -14 -10 -202 -99
-418 -200 -216 -100 -491 -228 -610 -283 -260 -122 -286 -130 -361 -113 -84
19 -137 63 -254 217 -111 145 -686 910 -860 1144 -55 74 -168 225 -251 335
-256 339 -269 357 -350 465 -78 105 -223 296 -515 682 -86 114 -157 211 -157
217 0 6 -4 11 -9 11 -10 0 -75 85 -103 135 -50 87 -4 147 149 194 55 17 105
31 110 31 6 0 24 -14 42 -30 62 -60 110 -64 250 -20 53 16 209 64 346 106 138
42 258 80 268 85 21 12 23 58 2 85 -8 10 -15 24 -15 31 0 18 167 67 230 66 72
0 146 -32 197 -86 22 -23 96 -112 165 -197 68 -85 202 -252 298 -370 95 -118
252 -313 349 -434 97 -120 186 -230 197 -245 l22 -26 56 39 c31 21 58 42 61
45 2 4 -33 52 -79 107 -45 54 -203 248 -351 429 -631 773 -650 793 -805 844
-97 32 -205 28 -365 -14z m-180 -265 c3 -5 -1 -10 -9 -10 -8 0 -18 5 -21 10
-3 6 1 10 9 10 8 0 18 -4 21 -10z m-978 -353 c11 -24 45 -74 74 -113 28 -38
52 -74 52 -81 0 -7 3 -11 6 -9 3 2 98 -120 211 -271 242 -323 277 -370 307
-403 13 -14 23 -28 23 -32 0 -3 6 -13 13 -20 15 -15 8 -6 518 -683 219 -291
563 -748 764 -1014 201 -267 365 -493 365 -503 0 -51 -31 -15 -356 417 -515
685 -1007 1339 -1144 1520 -75 99 -221 293 -325 430 -571 756 -545 720 -531
744 4 5 2 21 -4 35 -16 42 4 29 27 -17z m-93 -3 c3 -8 2 -12 -4 -9 -6 3 -10
10 -10 16 0 14 7 11 14 -7z m370 -721 c66 -83 89 -123 71 -123 -4 0 -143 182
-159 208 -4 6 -3 12 2 12 6 0 44 -44 86 -97z m235 -322 c45 -59 81 -111 81
-115 0 -3 -6 -6 -12 -5 -12 0 -157 191 -166 217 -12 37 25 -1 97 -97z m4191
-1021 c0 -5 -2 -10 -4 -10 -3 0 -8 5 -11 10 -3 6 -1 10 4 10 6 0 11 -4 11 -10z
m-45 -10 c-3 -5 -13 -10 -21 -10 -8 0 -14 5 -14 10 0 6 9 10 21 10 11 0 17 -4
14 -10z m615 -110 c12 -8 11 -10 -5 -10 -12 0 -26 -5 -32 -11 -12 -12 -33 -4
-33 11 0 8 20 16 45 19 6 0 17 -4 25 -9z m-113 -6 c-3 -3 -12 -4 -19 -1 -8 3
-5 6 6 6 11 1 17 -2 13 -5z m-607 -1014 c65 -56 110 -120 85 -120 -8 0 -15 4
-15 9 0 6 -15 11 -32 13 -24 2 -32 7 -30 20 1 9 -6 23 -17 30 -11 8 -25 26
-30 41 -6 15 -15 27 -20 27 -5 0 -11 7 -15 15 -10 28 16 15 74 -35z m-145
-100 c3 -5 1 -10 -4 -10 -6 0 -11 5 -11 10 0 6 2 10 4 10 3 0 8 -4 11 -10z
m343 -36 c56 -60 53 -72 -6 -29 -27 19 -52 32 -55 28 -9 -8 -9 10 -1 31 9 24
17 20 62 -30z"/>
<path d="M2230 4570 c0 -5 5 -10 11 -10 5 0 7 5 4 10 -3 6 -8 10 -11 10 -2 0
-4 -4 -4 -10z"/>
<path d="M1105 4230 c3 -5 8 -10 11 -10 2 0 4 5 4 10 0 6 -5 10 -11 10 -5 0
-7 -4 -4 -10z"/>
<path d="M1100 4030 c-8 -5 -10 -10 -5 -10 6 0 17 5 25 10 8 5 11 10 5 10 -5
0 -17 -5 -25 -10z"/>
<path d="M1050 4015 c0 -16 16 -20 24 -6 3 5 -1 11 -9 15 -9 3 -15 0 -15 -9z"/>
<path d="M1117 3919 c4 -13 8 -18 11 -10 2 7 -1 18 -6 23 -8 8 -9 4 -5 -13z"/>
<path d="M2357 3734 c-3 -4 -2 -15 4 -25 8 -16 6 -19 -13 -20 -19 -1 -18 -3 7
-9 52 -13 85 -11 85 5 0 33 -62 70 -83 49z m43 -24 c0 -5 -2 -10 -4 -10 -3 0
-8 5 -11 10 -3 6 -1 10 4 10 6 0 11 -4 11 -10z m27 -26 c-3 -3 -12 -4 -19 -1
-8 3 -5 6 6 6 11 1 17 -2 13 -5z"/>
<path d="M2278 3693 c6 -2 18 -2 25 0 6 3 1 5 -13 5 -14 0 -19 -2 -12 -5z"/>
<path d="M3093 3465 c-3 -9 -3 -18 -1 -21 3 -3 8 4 11 16 6 23 -1 27 -10 5z"/>
<path d="M3140 3430 c-9 -6 -10 -10 -3 -10 6 0 15 5 18 10 8 12 4 12 -15 0z"/>
<path d="M3773 3114 c-7 -3 -9 -12 -6 -20 6 -16 -12 -19 -22 -4 -12 19 -33 10
-37 -15 -4 -18 7 -44 38 -92 25 -38 44 -78 44 -94 0 -22 9 -32 48 -54 26 -15
55 -28 65 -30 16 -4 18 3 19 65 1 3 -2 19 -6 35 l-6 30 29 -31 c16 -18 33 -39
38 -49 5 -9 22 -18 37 -19 16 -2 32 -10 37 -17 5 -8 9 -9 9 -4 0 6 9 -1 20
-15 l20 -25 0 36 c0 20 3 38 6 42 10 9 34 -4 34 -18 0 -8 5 -17 11 -21 8 -5
10 0 6 17 -5 20 0 27 28 41 35 17 35 17 48 -9 14 -25 14 -25 23 23 11 55 5
105 -13 111 -7 3 -13 -9 -15 -29 -2 -18 -7 -31 -12 -30 -5 2 -13 -2 -17 -10
-6 -9 -9 -9 -9 -1 0 6 5 15 10 18 32 20 -8 67 -49 59 -24 -5 -30 -2 -36 17 -4
13 -18 32 -31 42 -13 10 -24 26 -25 35 0 12 -3 11 -9 -5 -5 -13 -16 -23 -25
-23 -8 0 -15 -5 -15 -11 0 -7 -10 -9 -25 -5 -16 4 -25 2 -25 -5 0 -8 -7 -6
-18 4 -10 10 -22 14 -25 10 -4 -3 2 -12 12 -20 18 -12 18 -15 4 -43 -19 -39
-39 -38 -47 3 -3 17 -24 51 -46 75 -39 42 -44 45 -67 36z"/>
<path d="M3975 3110 c-3 -5 3 -10 14 -10 12 0 21 5 21 10 0 6 -6 10 -14 10 -8
0 -18 -4 -21 -10z"/>
<path d="M3600 2986 c0 -34 -34 -90 -65 -106 -22 -12 -27 -11 -38 4 -15 21
-43 13 -50 -15 -5 -19 -24 -24 -75 -19 -30 2 -85 -33 -102 -65 -12 -22 -12
-28 4 -43 14 -14 33 -17 108 -15 95 3 118 12 118 47 0 11 7 29 14 39 14 19 36
23 36 7 0 -5 6 -10 14 -10 8 0 19 -12 24 -27 17 -44 27 -54 46 -47 15 6 15 9
-6 32 -16 17 -19 26 -10 29 6 3 12 11 12 18 0 7 5 15 10 17 15 5 14 86 -2 132
-15 47 -38 60 -38 22z"/>
<path d="M4539 2950 c-13 -10 -19 -19 -13 -20 6 0 19 9 29 20 23 26 14 26 -16
0z"/>
<path d="M4495 2920 c-3 -5 -1 -10 4 -10 6 0 11 5 11 10 0 6 -2 10 -4 10 -3 0
-8 -4 -11 -10z"/>
<path d="M3730 2872 c0 -27 43 -82 55 -70 8 8 -33 98 -45 98 -5 0 -10 -13 -10
-28z"/>
<path d="M4610 2680 c-25 -16 -45 -35 -45 -42 0 -18 54 -13 69 7 6 8 26 19 44
24 25 8 32 7 32 -5 0 -19 10 -18 65 6 25 11 43 24 40 30 -3 5 -41 10 -83 9
-67 0 -83 -4 -122 -29z"/>
<path d="M4430 2603 c14 -47 34 -93 40 -93 3 0 13 14 22 30 10 18 25 30 38 30
25 0 26 21 2 43 -12 11 -36 17 -65 17 -45 0 -46 0 -37 -27z"/>
<path d="M2332 2552 c-18 -6 -14 -19 8 -25 10 -3 27 1 36 8 16 11 15 12 -7 17
-14 2 -30 3 -37 0z"/>
<path d="M2243 2513 c9 -2 23 -2 30 0 6 3 -1 5 -18 5 -16 0 -22 -2 -12 -5z"/>
<path d="M2575 2186 c19 -14 45 -11 45 5 0 5 -14 9 -32 9 -30 0 -30 -1 -13
-14z"/>
<path d="M2508 2163 c6 -2 18 -2 25 0 6 3 1 5 -13 5 -14 0 -19 -2 -12 -5z"/>
<path d="M5897 2033 c-4 -3 -7 -10 -7 -14 0 -9 39 1 46 12 6 10 -29 12 -39 2z"/>
<path d="M2895 1799 c-10 -16 1 -22 26 -14 17 6 19 9 8 16 -19 12 -26 11 -34
-2z"/>
<path d="M4422 1761 c7 -23 36 -37 48 -25 8 8 6 15 -6 25 -12 9 -15 10 -10 2
4 -7 3 -13 -1 -13 -5 0 -15 6 -22 13 -11 10 -13 9 -9 -2z"/>
<path d="M3975 1651 c-132 -59 -359 -160 -505 -226 -146 -65 -282 -126 -303
-137 l-37 -19 79 -102 c44 -56 84 -101 89 -100 5 1 80 34 168 73 231 104 317
142 632 281 155 68 282 127 282 131 0 7 -159 209 -163 207 -1 0 -110 -49 -242
-108z m75 -85 c0 -8 9 -21 21 -29 19 -14 17 -16 -48 -47 -37 -17 -85 -40 -106
-51 -22 -10 -46 -19 -55 -19 -20 0 -52 29 -52 47 0 19 13 16 28 -8 7 -12 16
-18 19 -15 3 3 0 13 -7 21 -11 13 -10 18 6 30 10 8 27 15 37 15 9 0 17 4 17 9
0 5 27 17 60 27 33 10 60 21 60 26 0 4 5 8 10 8 6 0 10 -6 10 -14z m-240 -133
l21 -27 -33 -18 c-18 -9 -41 -17 -50 -18 -10 0 -18 -4 -18 -9 0 -12 -39 -21
-46 -10 -9 15 -25 10 -22 -8 2 -12 -9 -21 -37 -32 -22 -8 -46 -21 -53 -28 -7
-7 -22 -13 -33 -13 -10 0 -19 -4 -19 -10 0 -21 -50 -10 -66 15 -21 32 -12 55
21 55 14 0 25 4 25 10 0 5 19 15 43 21 23 7 49 18 57 25 8 6 26 15 39 19 13 4
40 14 60 23 20 9 41 15 48 14 6 -2 14 2 18 8 10 16 22 12 45 -17z"/>
<path d="M4417 1702 c3 -14 10 -19 21 -15 11 5 14 2 9 -10 -8 -21 -7 -21 29
-2 21 11 24 15 11 15 -10 0 -15 5 -12 10 3 6 0 10 -7 10 -7 0 -23 3 -35 6 -18
5 -21 3 -16 -14z"/>
<path d="M4180 1320 c-242 -114 -300 -143 -297 -146 4 -5 428 185 442 197 23
22 -29 3 -145 -51z"/>
<path d="M3820 1150 c-8 -5 -10 -10 -5 -10 6 0 17 5 25 10 8 5 11 10 5 10 -5
0 -17 -5 -25 -10z"/>
</g>
</svg>
